<svg class="styleclassestheme" width="754" height="386.99999999999994" xmlns="http://www.w3.org/2000/svg" preserveAspectRatio="xMidYMid meet">
 <metadata>Created by potrace 1.16, written by Peter Selinger 2001-2019</metadata>

 <g>
  <title>background</title>
  <rect fill="none" id="canvas_background" height="402" width="582" y="-1" x="-1"/>
 </g>
 <g>
  <title>Layer 1</title>
  <g id="svg_1" fill="#fff" transform="translate(0,387) scale(0.10000000149011612,-0.10000000149011612) ">
   <path id="svg_2" d="m1880,3505l0,-205l855,0l855,0l0,-90l0,-90l-1490,0l-1490,0l0,-50c0,-43 -3,-50 -20,-50c-25,0 -25,-2 0,-50l20,-40l-235,0l-235,0l0,-275l0,-275l30,0l30,0l0,-935c0,-928 0,-935 20,-935c13,0 20,-7 20,-20l0,-20l40,20l40,20l0,-65c0,-57 3,-69 25,-90l24,-25l576,0l576,0l24,25c24,24 25,28 25,180c0,152 -1,156 -25,180l-24,25l-576,0l-576,0l-24,-25c-23,-22 -25,-32 -25,-110l0,-85l-40,20l-40,20l0,-20c0,-11 -7,-20 -15,-20c-13,0 -15,36 -15,265c0,229 2,265 15,265c8,0 15,-9 15,-20l0,-20l40,20c21,11 42,20 45,20c3,0 5,-35 5,-78c0,-69 3,-81 23,-100l23,-22l575,0l576,0l21,23c21,22 22,33 22,178c0,150 -1,156 -23,177l-23,22l-575,0l-576,0l-21,-23c-18,-19 -22,-35 -22,-95c0,-40 -2,-72 -5,-72c-3,0 -24,9 -45,20l-40,20l0,-20c0,-11 -7,-20 -15,-20c-13,0 -15,33 -15,235c0,202 2,235 15,235c8,0 15,-9 15,-20l0,-20l40,20l40,20l0,-80c0,-73 3,-83 25,-105l24,-25l576,0l576,0l24,25c24,24 25,28 25,180c0,152 -1,156 -25,180l-24,25l-576,0l-576,0l-24,-25c-22,-21 -25,-33 -25,-95l0,-70l-40,20l-40,20l0,-20c0,-11 -7,-20 -15,-20c-13,0 -15,34 -15,250c0,216 2,250 15,250c8,0 15,-9 15,-20l0,-20l40,20c21,11 42,20 45,20c3,0 5,-36 5,-80c0,-73 3,-83 25,-105l24,-25l571,0l571,0l24,25c24,24 25,28 25,180c0,152 -1,156 -25,180l-24,25l-571,0l-571,0l-24,-25c-22,-21 -25,-33 -25,-95c0,-38 -2,-70 -5,-70c-3,0 -24,9 -45,20l-40,20l0,-20c0,-11 -7,-20 -15,-20c-13,0 -15,25 -15,165l0,165l445,0l445,0l0,275l0,275l-240,0l-240,0l20,40c25,48 25,50 0,50c-17,0 -20,7 -20,45l0,45l720,0l720,0l0,-45c0,-38 -3,-45 -20,-45c-25,0 -25,-2 0,-50l20,-40l-440,0l-440,0l0,-275l0,-275l210,0l210,0l0,-760c0,-753 0,-760 20,-760c13,0 20,-7 20,-20l0,-20l40,20c21,11 42,20 45,20c3,0 5,-45 5,-101l0,-101l34,-34l34,-34l747,0l747,0l34,34l34,34l0,232l0,232l-34,34l-34,34l-747,0l-747,0l-34,-34l-34,-34l0,-126c0,-69 -2,-126 -5,-126c-3,0 -24,9 -45,20l-40,20l0,-20c0,-11 -7,-20 -15,-20c-13,0 -15,42 -15,315c0,273 2,315 15,315c8,0 15,-9 15,-20l0,-20l40,20c21,11 42,20 45,20c3,0 5,-34 5,-75c0,-67 3,-79 25,-100l24,-25l766,0l766,0l24,25c24,24 25,28 25,180c0,152 -1,156 -25,180l-24,25l-766,0l-766,0l-24,-25c-22,-21 -25,-33 -25,-100c0,-41 -2,-75 -5,-75c-3,0 -24,9 -45,20l-40,20l0,-20c0,-11 -7,-20 -15,-20c-13,0 -15,34 -15,250c0,216 2,250 15,250c8,0 15,-9 15,-20l0,-20l40,20c21,11 42,20 45,20c3,0 5,-32 5,-70c0,-62 3,-74 25,-95l24,-25l766,0l766,0l24,25c24,24 25,28 25,180c0,152 -1,156 -25,180l-24,25l-766,0l-766,0l-24,-25c-22,-22 -25,-32 -25,-105c0,-44 -2,-80 -5,-80c-3,0 -24,9 -45,20l-40,20l0,-20c0,-11 -7,-20 -15,-20c-13,0 -15,27 -15,180l0,180l665,0l665,0l0,275l0,275l-435,0l-435,0l20,40c25,48 25,50 0,50c-17,0 -20,7 -20,45l0,45l765,0l765,0l0,-45c0,-38 -3,-45 -20,-45l-20,0l20,-40c11,-21 20,-42 20,-45c0,-3 -139,-5 -310,-5l-310,0l0,-275l0,-275l205,0l205,0l0,-695c0,-688 0,-695 20,-695c13,0 20,-7 20,-20l0,-20l40,20c21,11 42,20 45,20c3,0 5,-33 5,-73c0,-64 3,-76 23,-95c23,-22 27,-22 403,-22l381,0l21,23c21,22 22,33 22,178c0,220 46,199 -426,199l-381,0l-21,-23c-19,-20 -22,-35 -22,-100c0,-42 -2,-77 -5,-77c-3,0 -24,9 -45,20l-40,20l0,-20c0,-11 -7,-20 -15,-20c-13,0 -15,37 -15,270c0,227 2,270 14,270c8,0 16,-9 18,-19c3,-19 4,-18 46,3l43,22l-46,22c-44,21 -45,21 -45,2c0,-11 -7,-20 -15,-20c-13,0 -15,32 -15,230c0,198 2,230 15,230c8,0 15,-9 15,-20l0,-20l40,20c21,11 42,20 45,20c3,0 5,-34 5,-75c0,-67 3,-79 25,-100l24,-25l376,0l376,0l24,25c24,24 25,28 25,180c0,152 -1,156 -25,180l-24,25l-376,0l-376,0l-24,-25c-22,-21 -25,-33 -25,-100c0,-41 -2,-75 -5,-75c-3,0 -24,9 -45,20l-40,20l0,-20c0,-11 -7,-20 -15,-20c-13,0 -15,27 -15,180l0,180l495,0l495,0l0,275l0,275l-390,0c-214,0 -390,2 -390,5c0,3 9,24 20,45l20,40l-20,0c-17,0 -20,7 -20,45l0,45l648,-2l647,-3l3,-42c3,-38 1,-43 -17,-43c-26,0 -26,-1 -1,-50l20,-40l-240,0l-240,0l0,-840c0,-833 0,-840 -20,-840c-25,0 -25,-2 -1,-48c17,-33 17,-41 5,-62c-21,-38 -20,-490 1,-530c32,-62 6,-60 770,-60c764,0 738,-2 770,60c22,43 22,487 0,530c-32,62 -6,60 -770,60c-475,0 -703,-3 -716,-11c-20,-10 -20,-9 -5,20c20,38 20,41 -4,41c-19,0 -20,7 -20,150c0,127 2,150 15,150c8,0 15,-9 15,-20l0,-20l40,20l40,20l0,-73c0,-64 3,-76 23,-95l23,-22l665,0l666,0l21,23c21,22 22,33 22,178c0,150 -1,156 -23,177l-23,22l-665,0l-666,0l-21,-23c-19,-20 -22,-35 -22,-100l0,-77l-40,20l-40,20l0,-20c0,-11 -7,-20 -15,-20c-13,0 -15,34 -15,245c0,211 2,245 15,245c8,0 15,-9 15,-20l0,-20l40,20l40,20l0,-70c0,-62 3,-74 25,-95l24,-25l661,0l661,0l24,25c24,24 25,28 25,180c0,152 -1,156 -25,180l-24,25l-661,0l-661,0l-24,-25c-22,-22 -25,-32 -25,-105l0,-80l-40,20l-40,20l0,-20c0,-11 -7,-20 -15,-20c-13,0 -15,24 -15,160l0,160l485,0l485,0l0,275l0,275l-245,0c-135,0 -245,2 -245,5c0,3 9,24 20,45l20,40l-20,0c-17,0 -20,7 -20,45l0,45l685,0l685,0l0,-45c0,-38 -3,-45 -20,-45l-20,0l20,-40c11,-21 20,-42 20,-45c0,-3 -164,-5 -365,-5l-365,0l0,-275l0,-275l235,0l235,0l0,-1025c0,-1018 0,-1025 20,-1025c13,0 20,-7 20,-20l0,-20l40,20c21,11 42,20 45,20c3,0 5,-39 5,-86c0,-81 1,-87 29,-115l29,-29l597,0l597,0l29,29l29,29l0,192l0,192l-29,29l-29,29l-597,0l-597,0l-29,-29c-28,-29 -29,-32 -29,-130c0,-56 -2,-101 -5,-101c-3,0 -24,9 -45,20l-40,20l0,-20c0,-11 -7,-20 -15,-20c-13,0 -15,37 -15,275c0,238 2,275 15,275c8,0 15,-9 15,-20l0,-20l40,20c21,11 42,20 45,20c3,0 5,-27 5,-60c0,-109 -56,-100 650,-100c597,0 610,0 630,20c18,18 20,33 20,150c0,117 -2,132 -20,150c-20,20 -33,20 -630,20c-709,0 -650,9 -650,-105c0,-36 -2,-65 -5,-65c-3,0 -24,9 -45,20l-40,20l0,-20c0,-11 -7,-20 -15,-20c-13,0 -15,38 -15,285c0,247 2,285 15,285c8,0 15,-9 15,-20l0,-20l40,20l40,20l0,-55c0,-42 5,-60 20,-75c20,-20 33,-20 640,-20c607,0 620,0 640,20c18,18 20,33 20,155c0,122 -2,137 -20,155c-20,20 -33,20 -640,20c-725,0 -660,11 -660,-115l0,-75l-40,20l-40,20l0,-20c0,-11 -7,-20 -15,-20c-13,0 -15,38 -15,285c0,247 2,285 15,285c8,0 15,-9 15,-20l0,-20l40,20l40,20l0,-70c0,-121 -64,-110 665,-110c612,0 625,0 645,20c18,18 20,33 20,155c0,122 -2,137 -20,155c-20,20 -33,20 -645,20c-723,0 -665,9 -665,-100l0,-60l-40,20l-40,20l0,-20c0,-11 -7,-20 -15,-20c-13,0 -15,24 -15,160l0,160l495,0l495,0l0,275l0,275l-365,0l-365,0l20,40c25,48 25,50 0,50c-17,0 -20,7 -20,50l0,50l-1345,0l-1345,0l0,90l0,90l855,0l855,0l0,205l0,205l-1720,0l-1720,0l0,-205zm3430,0l0,-195l-1710,0l-1710,0l0,195l0,195l1710,0l1710,0l0,-195zm-4220,-850l0,-265l-470,0l-470,0l0,265l0,265l470,0l470,0l0,-265zm1840,0l0,-265l-870,0l-870,0l0,265l0,265l870,0l870,0l0,-265zm1450,0l0,-265l-695,0l-695,0l0,265l0,265l695,0l695,0l0,-265zm1020,0l0,-265l-480,0l-480,0l0,265l0,265l480,0l480,0l0,-265zm1620,0l0,-265l-725,0l-725,0l0,265l0,265l725,0l725,0l0,-265zm-1080,-415c18,-18 20,-33 20,-175c0,-142 -2,-157 -20,-175c-20,-20 -33,-20 -680,-20c-647,0 -660,0 -680,20c-18,18 -20,33 -20,175c0,142 2,157 20,175c20,20 33,20 680,20c647,0 660,0 680,-20zm-4400,-30c18,-18 20,-33 20,-175c0,-142 -2,-157 -20,-175c-20,-20 -33,-20 -590,-20c-557,0 -570,0 -590,20c-18,18 -20,33 -20,175c0,142 2,157 20,175c20,20 33,20 590,20c557,0 570,0 590,-20zm1790,-10c18,-18 20,-33 20,-175c0,-142 -2,-157 -20,-175c-20,-20 -33,-20 -785,-20c-752,0 -765,0 -785,20c-18,18 -20,33 -20,175c0,142 2,157 20,175c20,20 33,20 785,20c752,0 765,0 785,-20zm1010,-10c18,-18 20,-33 20,-175c0,-142 -2,-157 -20,-175c-19,-19 -33,-20 -395,-20c-362,0 -376,1 -395,20c-18,18 -20,33 -20,175c0,142 2,157 20,175c19,19 33,20 395,20c362,0 376,-1 395,-20zm3112,3c16,-14 18,-33 18,-146c0,-107 -3,-134 -17,-149c-15,-17 -48,-18 -636,-18c-563,0 -622,2 -639,17c-16,14 -18,33 -18,146c0,107 3,134 17,149c15,17 48,18 636,18c563,0 622,-2 639,-17zm-1512,-463c18,-18 20,-33 20,-170c0,-137 -2,-152 -20,-170c-20,-20 -33,-20 -680,-20c-647,0 -660,0 -680,20c-18,18 -20,33 -20,170c0,137 2,152 20,170c20,20 33,20 680,20c647,0 660,0 680,-20zm-4400,-30c18,-18 20,-33 20,-175c0,-142 -2,-157 -20,-175c-20,-20 -33,-20 -595,-20c-562,0 -575,0 -595,20c-18,18 -20,33 -20,175c0,142 2,157 20,175c20,20 33,20 595,20c562,0 575,0 595,-20zm1790,-20c18,-18 20,-33 20,-175c0,-142 -2,-157 -20,-175c-20,-20 -33,-20 -785,-20c-752,0 -765,0 -785,20c-18,18 -20,33 -20,175c0,142 2,157 20,175c20,20 33,20 785,20c752,0 765,0 785,-20zm4112,-37c16,-14 18,-33 18,-146c0,-107 -3,-134 -17,-149c-15,-17 -48,-18 -631,-18c-559,0 -617,2 -634,17c-16,14 -18,33 -18,146c0,107 3,134 17,149c15,17 48,18 631,18c559,0 617,-2 634,-17zm-5902,-423c18,-18 20,-33 20,-170c0,-137 -2,-152 -20,-170c-20,-20 -33,-20 -590,-20c-557,0 -570,0 -590,20c-18,18 -20,33 -20,170c0,137 2,152 20,170c20,20 33,20 590,20c557,0 570,0 590,-20zm2800,-50c18,-18 20,-33 20,-170c0,-137 -2,-152 -20,-170c-19,-19 -33,-20 -395,-20c-362,0 -376,1 -395,20c-18,18 -20,33 -20,170c0,137 2,152 20,170c19,19 33,20 395,20c362,0 376,-1 395,-20zm1586,-14l34,-34l0,-247l0,-247l-34,-34l-34,-34l-707,0l-707,0l-34,34l-34,34l0,247l0,247l34,34l34,34l707,0l707,0l34,-34zm-2607,-7l31,-31l0,-228l0,-228l-31,-31l-31,-31l-743,0l-743,0l-31,31l-31,31l0,228l0,228l31,31l31,31l743,0l743,0l31,-31zm4113,-106c16,-14 18,-33 18,-141c0,-103 -3,-129 -17,-144c-15,-17 -48,-18 -621,-18c-549,0 -607,2 -624,17c-16,14 -18,33 -18,141c0,103 3,129 17,144c15,17 48,18 621,18c549,0 607,-2 624,-17zm-5892,-333c18,-18 20,-33 20,-175c0,-142 -2,-157 -20,-175c-20,-20 -33,-20 -595,-20c-562,0 -575,0 -595,20c-18,18 -20,33 -20,175c0,142 2,157 20,175c20,20 33,20 595,20c562,0 575,0 595,-20zm5895,-145c25,-24 25,-26 25,-215c0,-189 0,-191 -25,-215l-24,-25l-596,0l-596,0l-24,25c-25,24 -25,26 -25,215c0,189 0,191 25,215l24,25l596,0l596,0l24,-25z"/>
   <path id="svg_3" d="m3552,1717c-21,-22 -22,-33 -22,-178c0,-220 -46,-199 426,-199l381,0l21,23c21,22 22,33 22,178c0,220 46,199 -426,199l-381,0l-21,-23zm798,-7c18,-18 20,-33 20,-170c0,-137 -2,-152 -20,-170c-19,-19 -33,-20 -395,-20c-362,0 -376,1 -395,20c-18,18 -20,33 -20,170c0,137 2,152 20,170c19,19 33,20 395,20c362,0 376,-1 395,-20z"/>
  </g>
  <text stroke="#fff" transform="matrix(1.236375135812082,0,0,1.236375135812082,-67.40244126073297,-4.362760809562317) " xml:space="preserve" text-anchor="start" font-family="Helvetica, Arial, sans-serif" font-size="13" id="svg_4" y="37.372402" x="226.061547" stroke-width="0" fill="#fff">Классификация компьютерных вирусов</text>
  <text stroke="#fff" transform="matrix(1.2675344944000244,0,0,1.2675344944000244,-16.302883252501488,-47.32434392347932) " xml:space="preserve" text-anchor="start" font-family="Helvetica, Arial, sans-serif" font-size="13" id="svg_6" y="186.399185" x="57.209776" stroke-width="0" fill="#fff">Файловые</text>
  <text stroke="#000" transform="matrix(1.219262957572937,0,0,1.219262957572937,-11.977239057421684,-49.74870948307216) " xml:space="preserve" text-anchor="start" font-family="Helvetica, Arial, sans-serif" font-size="13" id="svg_7" y="238.043741" x="49.882684" fill-opacity="null" stroke-opacity="null" stroke-width="0" fill="#fff">Загрузочные</text>
  <text stroke="#fff" transform="matrix(1.251306268345935,0,0,1.251306268345935,-17.034991076986252,-66.68422437620904) " xml:space="preserve" text-anchor="start" font-family="Helvetica, Arial, sans-serif" font-size="13" id="svg_8" y="282.69593" x="69.38774" fill-opacity="null" stroke-opacity="null" stroke-width="0" fill="#fff">Макро</text>
  <text stroke="#fff" transform="matrix(1.2091572284698484,0,0,1.2091572284698484,-43.623283721506596,-65.27604181319474) " xml:space="preserve" text-anchor="start" font-family="Helvetica, Arial, sans-serif" font-size="13" id="svg_9" y="333.738726" x="87.788981" fill-opacity="null" stroke-opacity="null" stroke-width="0" fill="#fff">Сетевые</text>
  <text stroke="#fff" transform="matrix(1.2675344944000244,0,0,1.2675344944000244,-16.302883252501488,-47.32434392347932) " xml:space="preserve" text-anchor="start" font-family="Helvetica, Arial, sans-serif" font-size="13" id="svg_10" y="130.343314" x="43.092002" stroke-width="0" fill="#fff">Среда</text>
  <text stroke="#fff" transform="matrix(1.241301905407201,0,0,1.241301905407201,-11.60532024743128,-42.74482605864215) " xml:space="preserve" text-anchor="start" font-family="Helvetica, Arial, sans-serif" font-size="13" id="svg_11" y="187.238418" x="178.430223" stroke-width="0" fill="#fff">Перезапись</text>
  <text stroke="#fff" transform="matrix(1.2300102710723877,0,0,1.2300102710723877,-58.32557326927781,-51.82418920099735) " xml:space="preserve" text-anchor="start" font-family="Helvetica, Arial, sans-serif" font-size="13" id="svg_12" y="238.608043" x="200.519608" fill-opacity="null" stroke-opacity="null" stroke-width="0" fill="#fff">Паразитирование</text>
  <text stroke="#fff" transform="matrix(1.166657372901511,0,0,1.166657372901511,-41.77226158255694,-42.771427380407644) " xml:space="preserve" text-anchor="start" font-family="Helvetica, Arial, sans-serif" font-size="13" id="svg_13" y="289.538825" x="218.339141" fill-opacity="null" stroke-opacity="null" stroke-width="0" fill="#fff">Компаньон-</text>
  <text stroke="#fff" transform="matrix(1.1767799533312406,0,0,1.1767799533312406,-61.04883387908793,-60.77293246259009) " xml:space="preserve" text-anchor="start" font-family="Helvetica, Arial, sans-serif" font-size="13" id="svg_14" y="314.922317" x="246.210299" fill-opacity="null" stroke-opacity="null" stroke-width="0" fill="#fff">вирусы</text>
  <text stroke="#fff" transform="matrix(1.2675344944000244,0,0,1.2675344944000244,-16.302883252501488,-47.32434392347932) " xml:space="preserve" text-anchor="start" font-family="Helvetica, Arial, sans-serif" font-size="13" id="svg_15" y="145.291546" x="33.541742" stroke-width="0" fill="#fff">обитания</text>
  <text stroke="#fff" transform="matrix(1.2675344944000244,0,0,1.2675344944000244,-16.302883252501488,-47.32434392347932) " xml:space="preserve" text-anchor="start" font-family="Helvetica, Arial, sans-serif" font-size="13" id="svg_16" y="129.928085" x="120.324534" stroke-width="0" fill="#fff">Способ заражения</text>
  <text stroke="#fff" transform="matrix(1.2675344944000244,0,0,1.2675344944000244,-16.302883252501488,-47.32434392347932) " xml:space="preserve" text-anchor="start" font-family="Helvetica, Arial, sans-serif" font-size="13" id="svg_17" y="141.969718" x="153.958057" stroke-width="0" fill="#fff">файлов</text>
  <text stroke="#fff" transform="matrix(1.2675344944000244,0,0,1.2675344944000244,-16.302883252501488,-47.32434392347932) " xml:space="preserve" text-anchor="start" font-family="Helvetica, Arial, sans-serif" font-size="13" id="svg_18" y="129.512856" x="259.010908" stroke-width="0" fill="#fff">Операционная</text>
  <text stroke="#fff" transform="matrix(1.2675344944000244,0,0,1.2675344944000244,-16.302883252501488,-47.32434392347932) " xml:space="preserve" text-anchor="start" font-family="Helvetica, Arial, sans-serif" font-size="13" id="svg_19" y="141.13926" x="279.772341" stroke-width="0" fill="#fff">система</text>
  <text stroke="#fff" transform="matrix(1.2675344944000244,0,0,1.2675344944000244,-16.302883252501488,-47.32434392347932) " xml:space="preserve" text-anchor="start" font-family="Helvetica, Arial, sans-serif" font-size="13" id="svg_20" y="188.47533" x="310.499264" stroke-width="0" fill="#fff">Unix</text>
  <text stroke="#fff" transform="matrix(1.2675344944000244,0,0,1.2675344944000244,-16.302883252501488,-47.32434392347932) " xml:space="preserve" text-anchor="start" font-family="Helvetica, Arial, sans-serif" font-size="13" id="svg_21" y="226.261138" x="308.838349" stroke-width="0" fill="#fff">Linux</text>
  <text stroke="#fff" transform="matrix(1.2675344944000244,0,0,1.2675344944000244,-16.302883252501488,-47.32434392347932) " xml:space="preserve" text-anchor="start" font-family="Helvetica, Arial, sans-serif" font-size="13" id="svg_22" y="268.614463" x="305.101291" stroke-width="0" fill="#fff">Mobile</text>
  <text stroke="#fff" transform="matrix(1.2675344944000244,0,0,1.2675344944000244,-16.302883252501488,-47.32434392347932) " xml:space="preserve" text-anchor="start" font-family="Helvetica, Arial, sans-serif" font-size="13" id="svg_23" y="130.343317" x="374.859709" stroke-width="0" fill="#fff">Алгоритм</text>
  <text stroke="#fff" transform="matrix(1.2675344944000244,0,0,1.2675344944000244,-16.302883252501488,-47.32434392347932) " xml:space="preserve" text-anchor="start" font-family="Helvetica, Arial, sans-serif" font-size="13" id="svg_24" y="141.554491" x="381.08814" stroke-width="0" fill="#fff">работы</text>
  <text stroke="#fff" transform="matrix(1.2675344944000244,0,0,1.2675344944000244,-16.302883252501488,-47.32434392347932) " xml:space="preserve" text-anchor="start" font-family="Helvetica, Arial, sans-serif" font-size="13" id="svg_25" y="130.343317" x="461.6425" stroke-width="0" fill="#fff">Деструктивные</text>
  <text stroke="#fff" transform="matrix(1.2675344944000244,0,0,1.2675344944000244,-16.302883252501488,-47.32434392347932) " xml:space="preserve" text-anchor="start" font-family="Helvetica, Arial, sans-serif" font-size="13" id="svg_26" y="143.215406" x="469.947074" stroke-width="0" fill="#fff">возможности</text>
  <text stroke="#fff" transform="matrix(1.2675344944000244,0,0,1.2675344944000244,-16.302883252501488,-47.32434392347932) " xml:space="preserve" text-anchor="start" font-family="Helvetica, Arial, sans-serif" font-size="13" id="svg_27" y="183.907814" x="383.164281" stroke-width="0" fill="#fff">Резидентность</text>
  <text stroke="#fff" transform="matrix(1.2675344944000244,0,0,1.2675344944000244,-16.302883252501488,-47.32434392347932) " xml:space="preserve" text-anchor="start" font-family="Helvetica, Arial, sans-serif" font-size="13" id="svg_28" y="224.184994" x="392.299312" stroke-width="0" fill="#fff">Скрытность</text>
  <text stroke="#fff" transform="matrix(1.2675344944000244,0,0,1.2675344944000244,-16.302883252501488,-47.32434392347932) " xml:space="preserve" text-anchor="start" font-family="Helvetica, Arial, sans-serif" font-size="13" id="svg_29" y="269.029691" x="366.555135" stroke-width="0" fill="#fff">Самошифрование</text>
  <text stroke="#fff" transform="matrix(1.2675344944000244,0,0,1.2675344944000244,-16.302883252501488,-47.32434392347932) " xml:space="preserve" text-anchor="start" font-family="Helvetica, Arial, sans-serif" font-size="13" id="svg_30" y="283.562694" x="374.859708" stroke-width="0" fill="#fff">и полиморфизм</text>
  <text stroke="#fff" transform="matrix(1.2675344944000244,0,0,1.2675344944000244,-16.302883252501488,-47.32434392347932) " xml:space="preserve" text-anchor="start" font-family="Helvetica, Arial, sans-serif" font-size="13" id="svg_31" y="184.738272" x="513.130853" stroke-width="0" fill="#fff">Безвредные</text>
  <text stroke="#fff" transform="matrix(1.2675344944000244,0,0,1.2675344944000244,-16.302883252501488,-47.32434392347932) " xml:space="preserve" text-anchor="start" font-family="Helvetica, Arial, sans-serif" font-size="13" id="svg_32" y="229.16774" x="516.037453" stroke-width="0" fill="#fff">Неопасные</text>
  <text stroke="#fff" transform="matrix(1.2675344944000244,0,0,1.2675344944000244,-16.302883252501488,-47.32434392347932) " xml:space="preserve" text-anchor="start" font-family="Helvetica, Arial, sans-serif" font-size="13" id="svg_33" y="276.08858" x="523.096341" stroke-width="0" fill="#fff">Опасные</text>
  <text stroke="#fff" transform="matrix(1.2675344944000244,0,0,1.2675344944000244,-16.302883252501488,-47.32434392347932) " xml:space="preserve" text-anchor="start" font-family="Helvetica, Arial, sans-serif" font-size="13" id="svg_34" y="313.874389" x="531.816143" stroke-width="0" fill="#fff">Очень</text>
  <text stroke="#fff" transform="matrix(1.2675344944000244,0,0,1.2675344944000244,-16.302883252501488,-47.32434392347932) " xml:space="preserve" text-anchor="start" font-family="Helvetica, Arial, sans-serif" font-size="13" id="svg_35" y="325.085564" x="526.418171" stroke-width="0" fill="#fff">опасные</text>
 </g>
</svg>