<?xml version="1.0" standalone="no"?>
<!DOCTYPE svg PUBLIC "-//W3C//DTD SVG 20010904//EN"
 "http://www.w3.org/TR/2001/REC-SVG-20010904/DTD/svg10.dtd">
<svg version="1.0" xmlns="http://www.w3.org/2000/svg"
 width="652.000000pt" height="334.000000pt" viewBox="0 0 652.000000 334.000000"
 preserveAspectRatio="xMidYMid meet">
<metadata>
Created by potrace 1.16, written by Peter Selinger 2001-2019
</metadata>
<g transform="translate(0.000000,334.000000) scale(0.100000,-0.100000)"
fill="#000000" stroke="none">
<path d="M700 3141 c-260 -49 -470 -233 -556 -486 -24 -71 -27 -94 -27 -215 0
-121 3 -144 27 -215 75 -221 240 -386 461 -461 71 -24 94 -27 215 -27 121 0
144 3 215 27 271 92 463 329 491 604 l6 70 32 -9 c41 -12 46 -11 46 5 0 8 8
17 18 20 41 12 1586 306 1594 304 5 -2 -201 -217 -457 -478 -330 -337 -471
-474 -484 -473 -14 2 -23 -7 -31 -32 l-12 -35 -56 44 c-79 61 -134 90 -227
122 -72 24 -94 27 -215 27 -121 0 -144 -3 -215 -27 -221 -75 -386 -240 -461
-461 -24 -71 -27 -94 -27 -215 0 -121 3 -144 27 -215 75 -221 240 -386 461
-461 71 -24 94 -27 215 -27 121 0 144 3 215 27 221 75 386 240 461 461 24 71
27 94 27 215 0 121 -3 143 -27 215 -32 93 -61 148 -122 227 -24 31 -44 59 -44
61 0 3 14 10 31 16 22 8 29 15 25 28 -4 13 117 141 469 498 l474 480 1 -215
c0 -118 -3 -374 -7 -567 -5 -285 -9 -353 -20 -353 -17 0 -16 -4 3 -41 8 -17
14 -32 12 -33 -2 -1 -38 -8 -80 -14 -280 -42 -493 -220 -584 -487 -24 -71 -27
-94 -27 -215 0 -121 3 -144 27 -215 75 -221 240 -386 461 -461 71 -24 94 -27
215 -27 121 0 144 3 215 27 221 75 386 240 461 461 24 71 27 94 27 215 0 121
-3 144 -27 215 -37 110 -97 206 -176 285 -113 114 -246 179 -416 203 l-82 12
13 25 c19 33 18 50 0 50 -14 0 -15 62 -9 573 4 314 7 573 8 573 0 1 209 -216
464 -482 362 -379 462 -489 457 -503 -5 -15 1 -21 25 -26 16 -4 30 -9 30 -12
0 -2 -20 -30 -44 -61 -61 -79 -90 -134 -122 -227 -24 -72 -27 -94 -27 -215 0
-121 3 -144 27 -215 75 -221 240 -386 461 -461 71 -24 94 -27 215 -27 121 0
144 3 215 27 221 75 386 240 461 461 24 71 27 94 27 215 0 121 -3 144 -27 215
-75 221 -240 386 -461 461 -71 24 -94 27 -215 27 -121 0 -143 -3 -215 -27 -93
-32 -148 -61 -227 -123 l-57 -44 -7 28 c-10 40 -14 45 -28 34 -10 -8 -127 109
-469 467 -251 262 -452 478 -447 480 6 2 1516 -287 1587 -305 13 -3 23 -12 23
-20 0 -10 8 -12 34 -8 l33 7 8 -68 c29 -274 221 -509 490 -600 71 -24 94 -27
215 -27 121 0 144 3 215 27 221 75 386 240 461 461 24 71 27 94 27 215 0 121
-3 144 -27 215 -75 221 -240 386 -461 461 -71 24 -94 27 -215 27 -121 0 -144
-3 -215 -27 -269 -91 -461 -326 -490 -599 l-7 -67 -27 19 c-23 16 -29 17 -37
5 -7 -11 -138 11 -792 139 l-783 152 736 3 735 2 0 190 0 190 -1550 0 -1550 0
0 -190 0 -190 737 -2 737 -3 -775 -149 c-426 -82 -782 -151 -791 -154 -12 -3
-18 1 -18 12 0 21 -6 20 -38 -5 l-27 -21 -11 79 c-41 281 -224 501 -489 588
-88 29 -251 41 -335 26z m258 -16 c46 -9 115 -34 172 -62 79 -38 109 -60 181
-132 72 -72 94 -102 132 -181 102 -209 102 -411 0 -620 -66 -135 -178 -247
-313 -313 -103 -50 -211 -77 -310 -77 -99 0 -207 27 -310 77 -79 38 -109 60
-181 132 -72 72 -94 102 -132 181 -50 103 -77 211 -77 310 0 99 27 207 77 310
38 79 60 109 132 181 72 72 102 94 181 132 151 74 291 93 448 62z m3842 -165
l0 -180 -1540 0 -1540 0 0 180 0 180 1540 0 1540 0 0 -180z m1028 165 c46 -9
115 -34 172 -62 79 -38 109 -60 181 -132 72 -72 94 -102 132 -181 102 -209
102 -411 0 -620 -66 -135 -178 -247 -313 -313 -103 -50 -211 -77 -310 -77 -99
0 -207 27 -310 77 -79 38 -109 60 -181 132 -72 72 -94 102 -132 181 -50 103
-77 211 -77 310 0 99 27 207 77 310 38 79 60 109 132 181 72 72 102 94 181
132 151 74 291 93 448 62z m-940 -1200 c46 -9 115 -34 172 -62 79 -38 109 -60
181 -132 72 -72 94 -102 132 -181 102 -209 102 -411 0 -620 -38 -79 -60 -109
-132 -181 -72 -72 -102 -94 -181 -132 -103 -50 -211 -77 -310 -77 -99 0 -207
27 -310 77 -79 38 -109 60 -181 132 -72 72 -94 102 -132 181 -50 103 -77 211
-77 310 0 99 27 207 77 310 38 79 60 109 132 181 72 72 102 94 181 132 151 74
291 93 448 62z m-3010 -10 c46 -9 115 -34 172 -62 79 -38 109 -60 181 -132 72
-72 94 -102 132 -181 102 -209 102 -411 0 -620 -38 -79 -60 -109 -132 -181
-72 -72 -102 -94 -181 -132 -103 -50 -211 -77 -310 -77 -99 0 -207 27 -310 77
-79 38 -109 60 -181 132 -72 72 -94 102 -132 181 -102 209 -102 411 0 620 38
79 60 109 132 181 72 72 102 94 181 132 151 74 291 93 448 62z m1510 -400 c46
-9 115 -34 172 -62 79 -38 109 -60 181 -132 72 -72 94 -102 132 -181 102 -209
102 -411 0 -620 -38 -79 -60 -109 -132 -181 -72 -72 -102 -94 -181 -132 -103
-50 -211 -77 -310 -77 -99 0 -207 27 -310 77 -79 38 -109 60 -181 132 -72 72
-94 102 -132 181 -50 103 -77 211 -77 310 0 99 27 207 77 310 38 79 60 109
132 181 72 72 102 94 181 132 151 74 291 93 448 62z"/>
</g>


<text stroke="#000" xml:space="preserve" text-anchor="start" font-family="Helvetica, Arial, sans-serif" font-size="18" id="svg_4" y="43" x="200" stroke-width="0" fill="#000">Типы компьютерных вирусов</text>

<text stroke="#000" xml:space="preserve" text-anchor="start" font-family="Helvetica, Arial, sans-serif" font-size="18" id="svg_4" y="95" x="55" stroke-width="0" fill="#000">Черви</text>

<text stroke="#000" xml:space="preserve" text-anchor="start" font-family="Helvetica, Arial, sans-serif" font-size="18" id="svg_4" y="217" x="147" stroke-width="0" fill="#000">Троян</text>

<text stroke="#000" xml:space="preserve" text-anchor="start" font-family="Helvetica, Arial, sans-serif" font-size="18" id="svg_4" y="255" x="298" stroke-width="0" fill="#000">Руткит</text>

<text stroke="#000" xml:space="preserve" text-anchor="start" font-family="Helvetica, Arial, sans-serif" font-size="18" id="svg_4" y="217" x="446" stroke-width="0" fill="#000">Бэкдор</text>

<text stroke="#000" xml:space="preserve" text-anchor="start" font-family="Helvetica, Arial, sans-serif" font-size="18" id="svg_4" y="95" x="525" stroke-width="0" fill="#000">Загрузчик</text>

</svg>
